<svg xmlns="http://www.w3.org/2000/svg" xmlns:xlink="http://www.w3.org/1999/xlink" id="Layer_1" x="0px" y="0px" width="94.2px" height="51.6px" viewBox="0 0 94.2 51.6" xml:space="preserve">
<g>
	<g>
		<path fill="#FFFFFF" d="M16.8,8.3c0,0.2-0.1,0.8-0.4,1.6c-0.2,0.8-0.6,1.9-1,3.1s-0.9,2.6-1.4,4.1s-1.1,3-1.7,4.6    c-0.6,1.6-1.2,3.1-1.8,4.6s-1.2,2.9-1.8,4.2c0.2,0,0.5,0,0.7,0c0.3,0,0.5,0,0.8,0c0.9,0,1.7,0,2.6,0c0.9,0,1.7,0.1,2.5,0.1    c0.8,0.1,1.5,0.1,2.2,0.2s1.3,0.1,1.7,0.2c0.4,0.1,0.8,0.2,1.1,0.4c0.3,0.2,0.5,0.5,0.7,0.8c0.2,0.4,0.3,0.9,0.4,1.5    c0.1,0.6,0.3,1.4,0.4,2.4c-2.4-0.6-4.8-1-7.3-1.3s-5-0.5-7.7-0.5c-0.3,0.6-0.6,1-0.9,1.3c-0.3,0.3-0.5,0.5-0.6,0.5    c-0.5,0-0.9-0.1-1.4-0.4c-0.5-0.3-0.9-0.6-1.3-1c-0.4-0.4-0.7-0.8-1-1.2c-0.3-0.4-0.4-0.8-0.4-1c0-0.4,0.3-0.7,1-0.9    C3.1,31.1,4,30.9,5,30.8c0.5-1.2,1-2.6,1.5-4.1s1-3.1,1.4-4.7c0.5-1.6,0.9-3.3,1.3-5c0.4-1.7,0.8-3.3,1.1-4.8    c0.3-1.5,0.6-2.9,0.8-4.2c0.2-1.3,0.4-2.4,0.5-3.3c0.8,0.1,1.4,0.3,2,0.6s1.2,0.6,1.6,0.9c0.5,0.4,0.9,0.7,1.1,1.1    C16.7,7.7,16.8,8,16.8,8.3z"></path>
	</g>
	<g>
		<path fill="#FFFFFF" d="M26.7,32.3c0.3,0,0.7-0.3,1.4-0.9c0.6-0.6,1.3-1.4,2-2.3c0.7-0.9,1.4-1.9,2.1-2.9c0.7-1,1.2-1.9,1.7-2.7    c0.1,0.5,0.2,1,0.3,1.5c0,0.5,0,0.9-0.2,1.3c-0.5,0.9-1,2-1.6,3.1c-0.6,1.1-1.3,2.1-2,3c-0.7,0.9-1.4,1.7-2.2,2.3    c-0.8,0.6-1.5,0.9-2.2,0.9c-0.3,0-0.6-0.1-1-0.4c-0.4-0.3-0.7-0.7-1-1.1c-0.3-0.4-0.6-0.9-0.8-1.4c-0.2-0.5-0.4-1-0.4-1.4    c0-0.3,0.2-1,0.5-2.2c0.3-1.2,0.7-2.6,1.1-4.1c0.4-1.6,0.8-3.2,1.2-4.8c0.4-1.7,0.6-3.1,0.7-4.4c1.5,0.4,2.7,0.9,3.6,1.6    c0.8,0.6,1.3,1.1,1.3,1.4c0,0.5-0.2,1.2-0.6,2.2s-1.2,2.2-2.2,3.7c-0.2,0.7-0.4,1.6-0.7,2.4c-0.2,0.9-0.4,1.7-0.6,2.5    c-0.2,0.8-0.3,1.4-0.3,2C26.5,32,26.6,32.3,26.7,32.3z M30,4.1c0.7,0.1,1.4,0.2,2,0.4c0.6,0.1,1.1,0.2,1.5,0.4    c0.5,0.1,0.8,0.2,1,0.4s0.2,0.4,0.1,0.6C34.4,6.1,34.2,6.5,34,7c-0.3,0.5-0.5,1.1-0.8,1.6c-0.3,0.6-0.6,1.1-0.9,1.6    c-0.3,0.5-0.5,0.9-0.7,1.2c-0.3,0.4-0.6,0.5-1,0.5c-0.3,0-0.6-0.1-1-0.2c-0.4-0.1-0.8-0.3-1.4-0.5L30,4.1z"></path>
	</g>
	<g>
		<path fill="#FFFFFF" d="M39.7,19.5c-0.4,0-0.8,0-1.3,0c-0.4,0-0.8,0.1-1.2,0.2c-0.4,0.1-0.6,0.2-0.9,0.4c-0.2,0.2-0.3,0.4-0.3,0.7    c0,0.4,0.3,0.9,1,1.5s1.4,1.3,2.2,2c0.8,0.7,1.5,1.4,2.2,2.1c0.7,0.7,1,1.4,1,2.1c0,0.6-0.2,1.3-0.5,2.1c-0.3,0.8-0.8,1.6-1.3,2.3    c-0.5,0.7-1.2,1.3-2,1.9c-0.8,0.5-1.6,0.8-2.5,0.8c-0.7,0-1.5-0.1-2.1-0.3c-0.7-0.2-1.3-0.4-1.8-0.6c-0.3-0.1-0.6-0.5-0.8-1.1    c-0.2-0.6-0.3-1.3-0.3-2.1c0-1,0.2-2,0.6-3c0.4,0.6,0.9,1.1,1.4,1.6c0.6,0.5,1.2,0.9,1.8,1.3c0.6,0.4,1.2,0.7,1.8,0.9    c0.6,0.2,1.1,0.3,1.5,0.3c0.6,0,0.9-0.2,0.9-0.7c0-0.3-0.3-0.8-1-1.5c-0.6-0.7-1.3-1.5-2.1-2.3s-1.5-1.7-2.1-2.5s-1-1.6-1-2.2    c0-0.7,0.2-1.4,0.6-2.3c0.4-0.9,0.9-1.8,1.6-2.6c0.6-0.8,1.4-1.5,2.2-2.1c0.8-0.6,1.6-0.9,2.4-0.9c0.5,0,1,0.2,1.5,0.6    c0.5,0.4,1,0.8,1.4,1.4c0.4,0.5,0.7,1,1,1.6c0.3,0.5,0.4,0.9,0.4,1.2c0,0.5-0.2,1-0.5,1.4c-0.3,0.4-0.7,0.7-1.1,0.9    c-0.5,0.3-1,0.5-1.6,0.8L39.7,19.5z"></path>
	</g>
	<g>
		<path fill="#FFFFFF" d="M49,32.3c0.3,0,0.7-0.3,1.4-0.9c0.6-0.6,1.3-1.4,2-2.3c0.7-0.9,1.4-1.9,2.1-2.9c0.7-1,1.2-1.9,1.7-2.7    c0.1,0.5,0.2,1,0.3,1.5c0,0.5,0,0.9-0.2,1.3c-0.5,0.9-1,2-1.6,3.1c-0.6,1.1-1.3,2.1-2,3c-0.7,0.9-1.4,1.7-2.2,2.3    c-0.8,0.6-1.5,0.9-2.2,0.9c-0.4,0-0.8-0.2-1.3-0.6c-0.5-0.4-1-0.9-1.4-1.4c-0.4-0.6-0.8-1.2-1.1-1.8c-0.3-0.7-0.4-1.2-0.4-1.7    c0-0.4,0.1-1,0.4-2.1c0.3-1,0.6-2.2,1-3.6c0.4-1.4,0.9-2.9,1.4-4.6c0.5-1.6,1.1-3.2,1.6-4.8c-2,0-3.6,0.1-4.8,0.1    c-1.3,0-2,0-2.2-0.1c-0.2-0.1-0.4-0.2-0.6-0.5c-0.2-0.2-0.3-0.8-0.4-1.7c0.5,0.1,1.3,0.1,2.4,0.1c0.8,0,1.8,0,2.9,0    c1.1,0,2.3-0.1,3.6-0.1c0.5-1.5,1-2.8,1.4-4.1c0.5-1.2,0.9-2.2,1.2-2.9c1.2,0.5,2,1.1,2.6,1.6c0.6,0.6,0.8,1,0.8,1.2l-1.3,4    c0.9,0,1.8-0.1,2.5-0.1c0.8,0,1.4,0,2,0c0.3,0,0.6,0,0.8,0s0.4,0,0.6,0.1c0.2,0.1,0.4,0.2,0.5,0.5c0.1,0.3,0.2,0.5,0.3,0.8    c0.1,0.3,0.1,0.6,0.1,0.8c0,0.3,0,0.4-0.1,0.5c-0.5-0.1-1.2-0.2-2.1-0.3c-0.9,0-2,0-3.3,0h-2c-0.4,1.2-0.8,2.4-1.2,3.8    c-0.4,1.3-0.8,2.6-1.2,3.9c-0.4,1.3-0.7,2.5-1,3.7c-0.3,1.2-0.5,2.2-0.7,3.1c-0.2,0.9-0.2,1.6-0.2,2.1C48.7,32,48.8,32.3,49,32.3z    "></path>
	</g>
	<g>
		<path fill="#FFFFFF" d="M58.1,32.3c0.3,0,0.7-0.3,1.4-0.9c0.6-0.6,1.3-1.4,2-2.3c0.7-0.9,1.4-1.9,2.1-2.9c0.7-1,1.2-1.9,1.7-2.7    c0.1,0.5,0.2,1,0.3,1.5c0,0.5,0,0.9-0.2,1.3c-0.5,0.9-1,2-1.6,3.1c-0.6,1.1-1.3,2.1-2,3c-0.7,0.9-1.4,1.7-2.2,2.3    c-0.8,0.6-1.5,0.9-2.2,0.9c-0.3,0-0.6-0.1-1-0.4c-0.4-0.3-0.7-0.7-1-1.1c-0.3-0.4-0.6-0.9-0.8-1.4c-0.2-0.5-0.4-1-0.4-1.4    c0-0.3,0.2-1,0.5-2.2c0.3-1.2,0.7-2.6,1.1-4.1c0.4-1.6,0.8-3.2,1.2-4.8c0.4-1.7,0.6-3.1,0.7-4.4c1.5,0.4,2.7,0.9,3.6,1.6    c0.9,0.7,1.3,1.1,1.3,1.4c0,0.5-0.2,1.2-0.6,2.2c-0.4,1-1.2,2.2-2.2,3.7c-0.2,0.7-0.4,1.6-0.7,2.4c-0.2,0.9-0.4,1.7-0.6,2.5    c-0.2,0.8-0.3,1.4-0.3,2C57.9,32,57.9,32.3,58.1,32.3z M61.4,4.1c0.7,0.1,1.4,0.2,2,0.4c0.6,0.1,1.1,0.2,1.5,0.4    c0.4,0.1,0.7,0.3,0.9,0.5C66,5.6,66,5.8,65.9,6s-0.3,0.6-0.6,1.1c-0.3,0.5-0.5,1.1-0.8,1.6c-0.3,0.6-0.6,1.1-0.9,1.6    c-0.3,0.5-0.5,0.9-0.7,1.2c-0.3,0.4-0.6,0.5-1,0.5c-0.3,0-0.6-0.1-1-0.2s-0.8-0.3-1.4-0.5L61.4,4.1z"></path>
	</g>
	<g>
		<path fill="#FFFFFF" d="M78.6,19.7c-0.5,0.4-1.2,0.7-1.9,1c-0.7,0.3-1.5,0.6-2.2,0.9c-0.8,0.3-1.5,0.5-2.3,0.7    c-0.8,0.2-1.5,0.3-2.1,0.4c0.1,0.8,0.1,1.5,0.2,2.3c0,0.8,0.1,1.6,0.1,2.4c0,2.4-0.1,4.8-0.4,7.3c-0.3,2.4-0.6,4.6-1.1,6.6    s-1,3.6-1.6,4.8c-0.6,1.2-1.3,1.9-2,1.9c-0.4,0-0.9-0.2-1.5-0.7c-0.6-0.5-1.2-1-1.8-1.7c-0.6-0.7-1.1-1.4-1.5-2.1    c-0.4-0.7-0.6-1.4-0.6-1.9c0-1.5,0.4-3.4,1.2-5.8c0.8-2.4,1.8-5.2,2.9-8.5c1.1-3.3,2.3-7,3.5-11.2c1.2-4.2,2.2-8.8,3-13.8    c0.5,0.1,1,0.2,1.6,0.4c0.5,0.2,1,0.4,1.5,0.7c0.4,0.3,0.8,0.5,1.1,0.8c0.3,0.3,0.4,0.5,0.4,0.7c0,0.5-0.1,1.2-0.4,2.1    c-0.3,0.9-0.6,2-1,3.3s-0.9,2.7-1.4,4.2s-1.1,3.1-1.7,4.8c0.2,0,0.5,0,0.8,0s0.5,0,0.8,0c1.2,0,2.5-0.1,3.8-0.3    c1.3-0.2,2.5-0.5,3.4-0.9c0,0.3-0.1,0.6-0.2,0.9C78.9,19.4,78.7,19.6,78.6,19.7z M64.1,44.7c0.6-0.9,1.1-2,1.6-3.4    c0.5-1.3,0.9-2.8,1.2-4.4c0.3-1.6,0.6-3.3,0.8-5.1c0.2-1.8,0.3-3.5,0.4-5.2c-0.6,1.7-1.1,3.5-1.6,5.2s-0.9,3.4-1.3,5    s-0.7,3-0.8,4.4C64,42.5,64,43.7,64.1,44.7z"></path>
	</g>
	<g>
		<path fill="#FFFFFF" d="M90.7,18.5c-0.2,0.9-0.4,1.7-0.7,2.6c-0.3,0.8-0.6,1.6-1,2.2c-0.4,0.7-0.8,1.3-1.2,1.8    c-0.4,0.5-0.8,0.9-1.3,1.2c-0.6,1.7-1.1,3.4-1.5,5.3c-0.5,1.9-0.8,3.8-1.2,5.7c-0.3,1.9-0.6,3.7-0.7,5.5c-0.2,1.8-0.3,3.4-0.3,4.8    c-0.4,0-0.9-0.1-1.4-0.3s-1-0.4-1.5-0.7S79,46,78.7,45.7c-0.3-0.3-0.5-0.6-0.5-0.9c0-0.8,0.1-1.8,0.3-3c0.2-1.2,0.5-2.4,0.9-3.7    s0.8-2.7,1.3-4.2c0.5-1.4,1-2.9,1.5-4.2c-0.5,0.8-1,1.6-1.5,2.3s-1,1.4-1.5,1.9s-0.9,1-1.4,1.3c-0.4,0.3-0.8,0.5-1.2,0.5    c-0.3,0-0.6-0.1-1-0.4s-0.7-0.7-1-1.1c-0.3-0.4-0.6-0.9-0.8-1.4c-0.2-0.5-0.4-1-0.4-1.4c0-0.2,0.1-0.6,0.3-1.2    c0.2-0.6,0.4-1.3,0.7-2.2c0.3-0.9,0.5-1.8,0.8-2.9c0.3-1.1,0.6-2.1,0.8-3.2c0.3-1.1,0.5-2.1,0.7-3.2c0.2-1.1,0.3-2,0.3-2.9    c1.6,0.5,2.8,0.9,3.6,1.4c0.8,0.5,1.2,0.9,1.2,1.2c0,0.1-0.1,0.6-0.3,1.2c-0.2,0.7-0.5,1.5-0.8,2.4c-0.3,0.9-0.7,1.9-1,3    c-0.6,1-0.9,2-1.3,3c-0.3,1-0.6,1.9-0.8,2.6c-0.2,0.8-0.3,1.3-0.4,1.7c0.4-0.3,0.8-0.7,1.3-1.3c0.5-0.6,1-1.2,1.6-2    c0.6-0.7,1.1-1.5,1.7-2.3c0.6-0.8,1.1-1.7,1.5-2.5c0.2-1,0.4-2.1,0.6-3.1c0.3-1,0.5-1.9,0.8-2.7c0.3-0.8,0.6-1.5,1-2    s0.8-0.8,1.2-0.8c0.2,0,0.4,0.1,0.7,0.3c0.3,0.2,0.6,0.4,0.9,0.7c0.3,0.3,0.7,0.6,1,0.9C90.1,17.8,90.4,18.1,90.7,18.5z"></path>
	</g>
</g>
</svg>